<svg width="523" height="523" viewBox="0 0 523 523" fill="none" xmlns="http://www.w3.org/2000/svg">
<rect width="523" height="523" rx="10" fill="#111111"/>
<path d="M286.375 84.2812C257.375 214.773 127.938 224.438 127.938 224.438C127.938 224.438 257.375 234.102 286.375 364.594C315.375 234.102 444.812 224.438 444.812 224.438C444.812 224.438 315.375 214.773 286.375 84.2812Z" fill="white"/>
<path d="M164.5 279.281C160.538 299.835 150.133 318.594 134.794 332.837C119.455 347.081 99.9784 356.069 79.1875 358.5C99.9784 360.931 119.455 369.919 134.794 384.163C150.133 398.406 160.538 417.165 164.5 437.719C168.462 417.165 178.867 398.406 194.206 384.163C209.545 369.919 229.022 360.931 249.812 358.5C229.022 356.069 209.545 347.081 194.206 332.837C178.867 318.594 168.462 299.835 164.5 279.281Z" fill="white"/>
</svg>
