<svg width="40" height="40" viewBox="0 0 40 40" fill="none" xmlns="http://www.w3.org/2000/svg">
<rect width="40.0002" height="40" rx="5.92594" fill="#171618"/>
<path d="M14.2114 21.0547L15.2206 23.0732C15.5622 23.7563 15.733 24.0979 15.9612 24.3938C16.1636 24.6565 16.399 24.8919 16.6617 25.0944C16.9576 25.3226 17.2992 25.4934 17.9823 25.8349L20.0009 26.8442L17.9823 27.8534C17.2992 28.1949 16.9576 28.3658 16.6617 28.5939C16.399 28.7964 16.1636 29.0318 15.9612 29.2945C15.733 29.5904 15.5622 29.932 15.2206 30.6151L14.2114 32.6336L13.2021 30.6151C12.8606 29.932 12.6898 29.5904 12.4616 29.2945C12.2592 29.0318 12.0237 28.7964 11.7611 28.5939C11.4651 28.3658 11.1235 28.1949 10.4404 27.8534L8.42188 26.8442L10.4404 25.8349C11.1235 25.4934 11.4651 25.3226 11.7611 25.0944C12.0237 24.8919 12.2592 24.6565 12.4616 24.3938C12.6898 24.0979 12.8606 23.7563 13.2021 23.0732L14.2114 21.0547Z" stroke="white" stroke-width="1.7284" stroke-linecap="round" stroke-linejoin="round"/>
<path d="M24.7365 7.37109L26.2429 11.288C26.6034 12.2252 26.7837 12.6938 27.064 13.088C27.3124 13.4374 27.6176 13.7425 27.967 13.991C28.3611 14.2712 28.8297 14.4515 29.7669 14.812L33.6839 16.3185L29.7669 17.8249C28.8297 18.1854 28.3611 18.3657 27.967 18.646C27.6176 18.8944 27.3124 19.1995 27.064 19.5489C26.7837 19.9431 26.6034 20.4117 26.243 21.3489L24.7365 25.2658L23.23 21.3489C22.8695 20.4117 22.6892 19.9431 22.4089 19.5489C22.1605 19.1995 21.8554 18.8944 21.506 18.646C21.1118 18.3657 20.6432 18.1854 19.706 17.8249L15.7891 16.3185L19.706 14.812C20.6432 14.4515 21.1118 14.2712 21.506 13.991C21.8554 13.7425 22.1605 13.4374 22.4089 13.088C22.6892 12.6938 22.8695 12.2252 23.23 11.288L24.7365 7.37109Z" stroke="white" stroke-width="1.7284" stroke-linecap="round" stroke-linejoin="round"/>
</svg>
