<svg width="146" height="28" viewBox="0 0 146 28" fill="none" xmlns="http://www.w3.org/2000/svg" aria-hidden="true">
  <path d="M12.7002 26.8828C10.2311 26.8828 8.03304 26.3348 6.10596 25.2388C4.17887 24.1427 2.67936 22.583 1.60742 20.5596C0.535482 18.5361 -0.000488281 16.1815 -0.000488281 13.4956C-0.000488281 10.8218 0.535482 8.46712 1.60742 6.43164C2.69141 4.38411 4.19092 2.80029 6.10596 1.68018C8.021 0.560059 10.2191 0 12.7002 0C15.1693 0 17.3613 0.560059 19.2764 1.68018C21.1914 2.78825 22.6849 4.36605 23.7568 6.41357C24.8288 8.44906 25.3647 10.8097 25.3647 13.4956C25.3647 16.1935 24.8228 18.5542 23.7388 20.5776C22.6668 22.6011 21.1733 24.1608 19.2583 25.2568C17.3553 26.3408 15.1693 26.8828 12.7002 26.8828ZM12.6641 23.3599C14.3864 23.3599 15.904 22.9624 17.2168 22.1675C18.5296 21.3605 19.5413 20.2163 20.252 18.7349C20.9746 17.2414 21.3359 15.495 21.3359 13.4956C21.3359 11.4722 20.9746 9.7137 20.252 8.22021C19.5413 6.71468 18.5296 5.55843 17.2168 4.75146C15.916 3.93245 14.3984 3.52295 12.6641 3.52295C10.9417 3.52295 9.42415 3.93245 8.11133 4.75146C6.81055 5.55843 5.79883 6.71468 5.07617 8.22021C4.36556 9.7137 4.01025 11.4722 4.01025 13.4956C4.01025 15.519 4.37158 17.2715 5.09424 18.7529C5.81689 20.2344 6.83464 21.3726 8.14746 22.1675C9.46029 22.9624 10.9658 23.3599 12.6641 23.3599ZM36.9814 26.9009C35.223 26.9009 33.6331 26.5215 32.2119 25.7627C30.8027 24.9919 29.6947 23.8657 28.8877 22.3843C28.0807 20.9028 27.6772 19.1203 27.6772 17.0366C27.6772 14.965 28.0747 13.1825 28.8696 11.689C29.6646 10.1834 30.7606 9.03923 32.1577 8.25635C33.5549 7.46143 35.1447 7.06396 36.9272 7.06396C38.5653 7.06396 39.9985 7.39518 41.2271 8.05762C42.4556 8.70801 43.4251 9.60531 44.1357 10.7495C44.8464 11.8817 45.292 13.1523 45.4727 14.5615H41.8413C41.6968 13.7184 41.4198 12.9717 41.0103 12.3213C40.6128 11.6589 40.0708 11.1349 39.3843 10.7495C38.7098 10.3641 37.9028 10.1714 36.9634 10.1714C35.8312 10.1714 34.8496 10.4484 34.0186 11.0024C33.1875 11.5565 32.5492 12.3454 32.1035 13.3691C31.6579 14.3929 31.4351 15.5973 31.4351 16.9824C31.4351 18.3796 31.6579 19.59 32.1035 20.6138C32.5492 21.6375 33.1875 22.4204 34.0186 22.9624C34.8617 23.5044 35.8493 23.7754 36.9814 23.7754C37.8848 23.7754 38.6737 23.5947 39.3481 23.2334C40.0226 22.8721 40.5646 22.3783 40.9741 21.752C41.3836 21.1257 41.6727 20.415 41.8413 19.6201H45.4727C45.2679 21.0173 44.8102 22.2638 44.0996 23.3599C43.389 24.4559 42.4255 25.3231 41.209 25.9614C39.9925 26.5877 38.5833 26.9009 36.9814 26.9009ZM55.6802 26.7021C54.3071 26.7021 53.2111 26.4793 52.3921 26.0337C51.5851 25.576 51.001 24.9497 50.6396 24.1548C50.2904 23.3599 50.1157 22.4144 50.1157 21.3184V10.6772H46.8276V7.49756H50.1157V2.49316H53.8735V7.49756H58.2095V10.6772H53.8735V21.1377C53.8735 21.8604 54.0903 22.4264 54.5239 22.8359C54.9575 23.2334 55.6742 23.4321 56.6738 23.4321C57.1195 23.4321 57.6193 23.39 58.1733 23.3057V26.3408C57.3664 26.5817 56.5353 26.7021 55.6802 26.7021ZM69.2661 26.8828C67.4836 26.8828 65.8757 26.4793 64.4424 25.6724C63.0212 24.8534 61.9071 23.6911 61.1001 22.1855C60.3052 20.68 59.9077 18.9517 59.9077 17.0005C59.9077 15.0252 60.2992 13.2909 61.082 11.7974C61.877 10.2918 62.991 9.12956 64.4243 8.31055C65.8576 7.47949 67.4715 7.06396 69.2661 7.06396C71.0848 7.06396 72.6987 7.47347 74.1079 8.29248C75.5291 9.11149 76.6312 10.2738 77.4141 11.7793C78.209 13.2728 78.6064 15.0132 78.6064 17.0005C78.6064 18.9757 78.203 20.7101 77.396 22.2036C76.6011 23.6971 75.493 24.8534 74.0718 25.6724C72.6506 26.4793 71.0487 26.8828 69.2661 26.8828ZM69.2661 23.7573C70.326 23.7573 71.2715 23.4924 72.1025 22.9624C72.9456 22.4204 73.6081 21.6436 74.0898 20.6318C74.5716 19.6081 74.8125 18.3976 74.8125 17.0005C74.8125 15.5913 74.5716 14.3809 74.0898 13.3691C73.6201 12.3454 72.9637 11.5625 72.1206 11.0205C71.2896 10.4785 70.3381 10.2075 69.2661 10.2075C68.1821 10.2075 67.2186 10.4785 66.3755 11.0205C65.5444 11.5625 64.888 12.3454 64.4062 13.3691C63.9365 14.3809 63.7017 15.5913 63.7017 17.0005C63.7017 18.3976 63.9425 19.6021 64.4243 20.6138C64.9061 21.6255 65.5625 22.4023 66.3936 22.9443C67.2367 23.4863 68.1942 23.7573 69.2661 23.7573ZM85.3633 26.4673H81.6235V0.415527H85.3633V26.4673ZM94.4868 26.8105C93.2583 26.8105 92.1803 26.5817 91.2529 26.124C90.3376 25.6663 89.633 25.016 89.1392 24.1729C88.6574 23.3177 88.4165 22.3301 88.4165 21.21C88.4165 19.584 88.9284 18.3254 89.9521 17.4341C90.988 16.5308 92.4634 15.9346 94.3784 15.6455L98.8589 14.9771C99.3166 14.9168 99.6719 14.8385 99.9248 14.7422C100.19 14.6338 100.389 14.4772 100.521 14.2725C100.653 14.0677 100.72 13.8088 100.72 13.4956C100.72 12.8452 100.551 12.2731 100.214 11.7793C99.8887 11.2734 99.4129 10.888 98.7866 10.623C98.1724 10.3581 97.4437 10.2256 96.6006 10.2256C95.7936 10.2256 95.089 10.3641 94.4868 10.6411C93.8846 10.9061 93.4089 11.2855 93.0596 11.7793C92.7223 12.2731 92.5236 12.8573 92.4634 13.5317H88.832C88.9404 12.2069 89.3198 11.0627 89.9702 10.0991C90.6326 9.12354 91.5299 8.37679 92.6621 7.85889C93.7943 7.32894 95.1131 7.06396 96.6187 7.06396C98.2205 7.06396 99.5996 7.32894 100.756 7.85889C101.924 8.38883 102.815 9.1416 103.43 10.1172C104.044 11.0807 104.351 12.2129 104.351 13.5137V26.4673H100.72V23.5225H100.611C100.057 24.5583 99.2624 25.3652 98.2266 25.9434C97.1908 26.5215 95.9442 26.8105 94.4868 26.8105ZM95.4805 23.7573C96.5885 23.7573 97.534 23.4984 98.3169 22.9805C99.1118 22.4505 99.708 21.7459 100.105 20.8667C100.515 19.9875 100.72 19.036 100.72 18.0122V17.127C100.515 17.2594 100.274 17.3739 99.9971 17.4702C99.7201 17.5545 99.3647 17.6328 98.9312 17.7051L94.8301 18.3193C94.0231 18.4398 93.3667 18.7168 92.8608 19.1504C92.367 19.584 92.1201 20.2043 92.1201 21.0112C92.1201 21.5773 92.2526 22.0651 92.5176 22.4746C92.7946 22.8841 93.186 23.2033 93.6919 23.4321C94.1978 23.6489 94.7939 23.7573 95.4805 23.7573ZM108 26.4673V7.47949H111.74V10.3159H111.849C112.391 9.3042 113.167 8.50928 114.179 7.93115C115.191 7.35303 116.383 7.06396 117.756 7.06396C119.178 7.06396 120.4 7.35905 121.424 7.94922C122.448 8.53939 123.23 9.40055 123.772 10.5327C124.314 11.6649 124.585 13.0379 124.585 14.6519V26.4673H120.828V15.1216C120.828 13.604 120.46 12.4297 119.726 11.5986C118.991 10.7676 117.961 10.3521 116.636 10.3521C115.637 10.3521 114.763 10.5809 114.017 11.0386C113.282 11.4842 112.716 12.0985 112.318 12.8813C111.933 13.6642 111.74 14.5374 111.74 15.501V26.4673H108ZM136.509 26.8828C134.618 26.8828 132.98 26.4673 131.595 25.6362C130.222 24.7931 129.174 23.6188 128.452 22.1133C127.729 20.6077 127.368 18.8914 127.368 16.9644C127.368 14.965 127.747 13.2186 128.506 11.7251C129.265 10.2316 130.331 9.08138 131.704 8.27441C133.077 7.46745 134.667 7.06396 136.473 7.06396C138.22 7.06396 139.737 7.46143 141.026 8.25635C142.315 9.03923 143.302 10.1413 143.989 11.5625C144.675 12.9717 145.019 14.5856 145.019 16.4043C145.019 16.6572 145.013 16.9282 145 17.2173C144.988 17.5063 144.970 17.7954 144.946 18.0845H130.999C131.107 19.3009 131.396 20.3368 131.866 21.1919C132.348 22.035 132.986 22.6673 133.781 23.0889C134.588 23.4984 135.534 23.7031 136.618 23.7031C137.401 23.7031 138.105 23.5827 138.731 23.3418C139.358 23.1009 139.876 22.7456 140.285 22.2759C140.707 21.8062 141.014 21.2461 141.207 20.5957H144.874C144.633 21.8604 144.133 22.9684 143.375 23.9199C142.616 24.8714 141.646 25.6061 140.466 26.124C139.298 26.6299 137.979 26.8828 136.509 26.8828ZM141.333 15.1577C141.273 14.1099 141.044 13.1945 140.646 12.4116C140.249 11.6287 139.689 11.0265 138.966 10.605C138.244 10.1834 137.389 9.97266 136.401 9.97266C135.473 9.97266 134.63 10.1533 133.872 10.5146C133.125 10.876 132.505 11.4481 132.011 12.231C131.517 13.0018 131.192 13.9774 131.035 15.1577H141.333Z" fill="#FFFFFF"/>
</svg>
