<svg width="197" height="40" viewBox="0 0 197 40" fill="none" xmlns="http://www.w3.org/2000/svg">
<rect width="40.0002" height="40" rx="5.92594" fill="#171618"/>
<path d="M14.2114 21.0547L15.2206 23.0732C15.5622 23.7563 15.733 24.0979 15.9612 24.3938C16.1636 24.6565 16.399 24.8919 16.6617 25.0944C16.9576 25.3226 17.2992 25.4934 17.9823 25.8349L20.0009 26.8442L17.9823 27.8534C17.2992 28.1949 16.9576 28.3658 16.6617 28.5939C16.399 28.7964 16.1636 29.0318 15.9612 29.2945C15.733 29.5904 15.5622 29.932 15.2206 30.6151L14.2114 32.6336L13.2021 30.6151C12.8606 29.932 12.6898 29.5904 12.4616 29.2945C12.2592 29.0318 12.0237 28.7964 11.7611 28.5939C11.4651 28.3658 11.1235 28.1949 10.4404 27.8534L8.42188 26.8442L10.4404 25.8349C11.1235 25.4934 11.4651 25.3226 11.7611 25.0944C12.0237 24.8919 12.2592 24.6565 12.4616 24.3938C12.6898 24.0979 12.8606 23.7563 13.2021 23.0732L14.2114 21.0547Z" stroke="white" stroke-width="1.7284" stroke-linecap="round" stroke-linejoin="round"/>
<path d="M24.7365 7.37109L26.2429 11.288C26.6034 12.2252 26.7837 12.6938 27.064 13.088C27.3124 13.4374 27.6176 13.7425 27.967 13.991C28.3611 14.2712 28.8297 14.4515 29.7669 14.812L33.6839 16.3185L29.7669 17.8249C28.8297 18.1854 28.3611 18.3657 27.967 18.646C27.6176 18.8944 27.3124 19.1995 27.064 19.5489C26.7837 19.9431 26.6034 20.4117 26.243 21.3489L24.7365 25.2658L23.23 21.3489C22.8695 20.4117 22.6892 19.9431 22.4089 19.5489C22.1605 19.1995 21.8554 18.8944 21.506 18.646C21.1118 18.3657 20.6432 18.1854 19.706 17.8249L15.7891 16.3185L19.706 14.812C20.6432 14.4515 21.1118 14.2712 21.506 13.991C21.8554 13.7425 22.1605 13.4374 22.4089 13.088C22.6892 12.6938 22.8695 12.2252 23.23 11.288L24.7365 7.37109Z" stroke="white" stroke-width="1.7284" stroke-linecap="round" stroke-linejoin="round"/>
<path d="M69.9628 19.6565C69.9628 21.67 69.5856 23.3945 68.8314 24.8301C68.0831 26.2596 67.0612 27.3546 65.7655 28.1149C64.4759 28.8753 63.013 29.2555 61.3767 29.2555C59.7403 29.2555 58.2743 28.8753 56.9787 28.1149C55.6891 27.3485 54.6671 26.2505 53.9129 24.821C53.1646 23.3854 52.7905 21.6639 52.7905 19.6565C52.7905 17.6431 53.1646 15.9216 53.9129 14.4921C54.6671 13.0565 55.6891 11.9585 56.9787 11.1982C58.2743 10.4378 59.7403 10.0576 61.3767 10.0576C63.013 10.0576 64.4759 10.4378 65.7655 11.1982C67.0612 11.9585 68.0831 13.0565 68.8314 14.4921C69.5856 15.9216 69.9628 17.6431 69.9628 19.6565ZM66.5594 19.6565C66.5594 18.2392 66.3373 17.0439 65.8933 16.0706C65.4553 15.0913 64.847 14.3522 64.0684 13.8534C63.2898 13.3485 62.3925 13.0961 61.3767 13.0961C60.3608 13.0961 59.4636 13.3485 58.6849 13.8534C57.9063 14.3522 57.295 15.0913 56.8509 16.0706C56.413 17.0439 56.194 18.2392 56.194 19.6565C56.194 21.0739 56.413 22.2722 56.8509 23.2516C57.295 24.2249 57.9063 24.9639 58.6849 25.4688C59.4636 25.9676 60.3608 26.217 61.3767 26.217C62.3925 26.217 63.2898 25.9676 64.0684 25.4688C64.847 24.9639 65.4553 24.2249 65.8933 23.2516C66.3373 22.2722 66.5594 21.0739 66.5594 19.6565ZM79.1306 29.2737C77.7315 29.2737 76.5301 28.9665 75.5264 28.3522C74.5288 27.7378 73.7593 26.8892 73.2179 25.8064C72.6826 24.7176 72.415 23.4645 72.415 22.0472C72.415 20.6237 72.6887 19.3676 73.2362 18.2788C73.7837 17.1838 74.5562 16.3322 75.5538 15.7239C76.5575 15.1095 77.7437 14.8023 79.1123 14.8023C80.2499 14.8023 81.2566 15.0122 82.1325 15.4319C83.0146 15.8456 83.7172 16.4326 84.2403 17.1929C84.7634 17.9472 85.0615 18.8293 85.1345 19.839H81.9774C81.8497 19.1638 81.5455 18.6012 81.065 18.151C80.5905 17.6948 79.9548 17.4667 79.158 17.4667C78.4828 17.4667 77.8897 17.6492 77.3787 18.0141C76.8677 18.373 76.4693 18.8901 76.1834 19.5653C75.9036 20.2405 75.7637 21.0495 75.7637 21.9924C75.7637 22.9474 75.9036 23.7686 76.1834 24.456C76.4632 25.1373 76.8556 25.6635 77.3604 26.0345C77.8714 26.3995 78.4706 26.582 79.158 26.582C79.6446 26.582 80.0795 26.4908 80.4628 26.3083C80.8521 26.1197 81.1775 25.849 81.4391 25.4962C81.7007 25.1434 81.8801 24.7145 81.9774 24.2097H85.1345C85.0554 25.2012 84.7634 26.0802 84.2585 26.8466C83.7537 27.607 83.0663 28.2031 82.1964 28.635C81.3266 29.0608 80.3046 29.2737 79.1306 29.2737ZM94.8452 14.9848V17.5397H86.7883V14.9848H94.8452ZM88.7774 11.627H92.0805V24.7845C92.0805 25.2286 92.1474 25.5692 92.2812 25.8064C92.4211 26.0376 92.6036 26.1957 92.8287 26.2809C93.0538 26.3661 93.3032 26.4087 93.5769 26.4087C93.7837 26.4087 93.9723 26.3934 94.1426 26.363C94.319 26.3326 94.4529 26.3052 94.5441 26.2809L95.1007 28.8631C94.9243 28.924 94.6718 28.9909 94.3434 29.0639C94.021 29.1369 93.6256 29.1794 93.1572 29.1916C92.3299 29.2159 91.5847 29.0912 90.9217 28.8175C90.2586 28.5377 89.7325 28.1058 89.3432 27.5218C88.9599 26.9379 88.7714 26.2079 88.7774 25.332V11.627ZM103.57 29.2737C102.202 29.2737 101.016 28.9726 100.012 28.3704C99.0082 27.7682 98.2296 26.9257 97.6761 25.8429C97.1286 24.7602 96.8549 23.4949 96.8549 22.0472C96.8549 20.5994 97.1286 19.3311 97.6761 18.2423C98.2296 17.1534 99.0082 16.3079 100.012 15.7057C101.016 15.1034 102.202 14.8023 103.57 14.8023C104.939 14.8023 106.125 15.1034 107.129 15.7057C108.133 16.3079 108.908 17.1534 109.456 18.2423C110.009 19.3311 110.286 20.5994 110.286 22.0472C110.286 23.4949 110.009 24.7602 109.456 25.8429C108.908 26.9257 108.133 27.7682 107.129 28.3704C106.125 28.9726 104.939 29.2737 103.57 29.2737ZM103.589 26.6276C104.331 26.6276 104.951 26.4239 105.45 26.0163C105.949 25.6027 106.32 25.0491 106.563 24.3556C106.813 23.6622 106.937 22.8896 106.937 22.038C106.937 21.1803 106.813 20.4048 106.563 19.7113C106.32 19.0118 105.949 18.4552 105.45 18.0415C104.951 17.6279 104.331 17.4211 103.589 17.4211C102.828 17.4211 102.196 17.6279 101.691 18.0415C101.192 18.4552 100.818 19.0118 100.569 19.7113C100.325 20.4048 100.204 21.1803 100.204 22.038C100.204 22.8896 100.325 23.6622 100.569 24.3556C100.818 25.0491 101.192 25.6027 101.691 26.0163C102.196 26.4239 102.828 26.6276 103.589 26.6276ZM116.393 10.3131V29H113.09V10.3131H116.393ZM123.822 29.2829C122.934 29.2829 122.134 29.1247 121.422 28.8084C120.717 28.486 120.157 28.0115 119.744 27.385C119.336 26.7584 119.132 25.9859 119.132 25.0674C119.132 24.2766 119.278 23.6226 119.57 23.1056C119.862 22.5885 120.261 22.1749 120.766 21.8647C121.27 21.5544 121.839 21.3202 122.472 21.1621C123.111 20.9978 123.771 20.8792 124.452 20.8062C125.273 20.7211 125.939 20.645 126.45 20.5781C126.961 20.5051 127.332 20.3956 127.563 20.2496C127.8 20.0976 127.919 19.8634 127.919 19.5471V19.4923C127.919 18.8049 127.715 18.2727 127.308 17.8955C126.9 17.5184 126.313 17.3298 125.547 17.3298C124.738 17.3298 124.096 17.5062 123.621 17.859C123.153 18.2118 122.837 18.6285 122.673 19.1091L119.588 18.6711C119.832 17.8195 120.233 17.1078 120.793 16.536C121.353 15.9581 122.037 15.5262 122.846 15.2403C123.655 14.9483 124.549 14.8023 125.529 14.8023C126.204 14.8023 126.876 14.8814 127.545 15.0396C128.214 15.1977 128.825 15.4593 129.379 15.8243C129.933 16.1832 130.377 16.6728 130.711 17.2933C131.052 17.9138 131.222 18.6894 131.222 19.62V29H128.047V27.0747H127.937C127.737 27.464 127.454 27.829 127.089 28.1697C126.73 28.5042 126.277 28.7749 125.729 28.9818C125.188 29.1825 124.552 29.2829 123.822 29.2829ZM124.68 26.8558C125.343 26.8558 125.918 26.725 126.404 26.4634C126.891 26.1957 127.265 25.8429 127.527 25.405C127.794 24.967 127.928 24.4895 127.928 23.9724V22.3209C127.825 22.4061 127.648 22.4851 127.399 22.5581C127.156 22.6311 126.882 22.695 126.578 22.7497C126.274 22.8045 125.973 22.8532 125.674 22.8957C125.376 22.9383 125.118 22.9748 124.899 23.0052C124.406 23.0721 123.965 23.1816 123.576 23.3337C123.187 23.4858 122.879 23.6987 122.654 23.9724C122.429 24.2401 122.317 24.5868 122.317 25.0126C122.317 25.6209 122.539 26.0802 122.983 26.3904C123.427 26.7006 123.993 26.8558 124.68 26.8558ZM137.847 20.788V29H134.543V14.9848H137.701V17.3663H137.865C138.187 16.5816 138.701 15.9581 139.407 15.4958C140.119 15.0335 140.998 14.8023 142.044 14.8023C143.011 14.8023 143.853 15.0092 144.571 15.4228C145.295 15.8364 145.855 16.4356 146.25 17.2203C146.652 18.005 146.849 18.957 146.843 20.0763V29H143.54V20.5872C143.54 19.6505 143.297 18.9175 142.81 18.3882C142.33 17.859 141.664 17.5944 140.812 17.5944C140.234 17.5944 139.72 17.7222 139.27 17.9776C138.826 18.227 138.476 18.589 138.221 19.0635C137.971 19.5379 137.847 20.1128 137.847 20.788ZM156.406 29.2737C155.001 29.2737 153.787 28.9818 152.765 28.3978C151.749 27.8077 150.968 26.9744 150.42 25.8977C149.873 24.8149 149.599 23.5405 149.599 22.0745C149.599 20.6329 149.873 19.3676 150.42 18.2788C150.974 17.1838 151.746 16.3322 152.738 15.7239C153.729 15.1095 154.894 14.8023 156.232 14.8023C157.096 14.8023 157.911 14.9422 158.678 15.2221C159.45 15.4958 160.132 15.9216 160.722 16.4995C161.318 17.0774 161.786 17.8134 162.127 18.7076C162.467 19.5957 162.638 20.6542 162.638 21.8829V22.8957H151.15V20.6694H159.472C159.465 20.0367 159.329 19.4741 159.061 18.9813C158.793 18.4825 158.419 18.0902 157.939 17.8043C157.464 17.5184 156.911 17.3754 156.278 17.3754C155.603 17.3754 155.01 17.5397 154.499 17.8682C153.988 18.1905 153.589 18.6164 153.303 19.1456C153.024 19.6687 152.881 20.2436 152.875 20.8701V22.8136C152.875 23.6287 153.024 24.3283 153.322 24.9122C153.62 25.4901 154.036 25.9342 154.572 26.2444C155.107 26.5486 155.734 26.7006 156.451 26.7006C156.932 26.7006 157.367 26.6337 157.756 26.4999C158.145 26.36 158.483 26.1562 158.769 25.8886C159.055 25.6209 159.271 25.2894 159.417 24.894L162.501 25.2407C162.306 26.0558 161.935 26.7675 161.388 27.3758C160.846 27.9781 160.153 28.4464 159.307 28.781C158.462 29.1095 157.495 29.2737 156.406 29.2737ZM174.351 29H170.738L177.317 10.3131H181.496L188.084 29H184.47L179.479 14.1454H179.333L174.351 29ZM174.47 21.6731H184.324V24.3921H174.47V21.6731ZM193.93 10.3131V29H190.545V10.3131H193.93Z" fill="black"/>
</svg>
