<svg width="1409" height="247" viewBox="0 0 1409 247" fill="none" xmlns="http://www.w3.org/2000/svg">
<rect width="246.022" height="246.022" rx="10" fill="#111111"/>
<path d="M427.61 129.74C427.61 145.602 424.603 159.096 418.59 170.223C412.624 181.35 404.48 189.849 394.158 195.72C383.883 201.544 372.33 204.456 359.499 204.456C346.573 204.456 334.972 201.52 324.698 195.649C314.423 189.778 306.303 181.279 300.337 170.152C294.371 159.025 291.388 145.554 291.388 129.74C291.388 113.878 294.371 100.384 300.337 89.2571C306.303 78.1302 314.423 69.6548 324.698 63.8309C334.972 57.9597 346.573 55.0241 359.499 55.0241C372.33 55.0241 383.883 57.9597 394.158 63.8309C404.48 69.6548 412.624 78.1302 418.59 89.2571C424.603 100.384 427.61 113.878 427.61 129.74ZM396.431 129.74C396.431 119.465 394.892 110.801 391.814 103.746C388.784 96.6908 384.499 91.3404 378.959 87.6946C373.419 84.0487 366.932 82.2258 359.499 82.2258C352.065 82.2258 345.578 84.0487 340.039 87.6946C334.499 91.3404 330.19 96.6908 327.112 103.746C324.082 110.801 322.567 119.465 322.567 129.74C322.567 140.015 324.082 148.679 327.112 155.734C330.19 162.789 334.499 168.14 340.039 171.785C345.578 175.431 352.065 177.254 359.499 177.254C366.932 177.254 373.419 175.431 378.959 171.785C384.499 168.14 388.784 162.789 391.814 155.734C394.892 148.679 396.431 140.015 396.431 129.74ZM499.112 204.598C487.937 204.598 478.326 202.231 470.276 197.496C462.275 192.713 456.119 186.085 451.811 177.609C447.549 169.134 445.419 159.38 445.419 148.348C445.419 137.174 447.573 127.373 451.882 118.945C456.238 110.469 462.417 103.864 470.419 99.1292C478.42 94.347 487.937 91.9559 498.97 91.9559C508.487 91.9559 516.82 93.6841 523.97 97.1406C531.119 100.597 536.777 105.45 540.944 111.7C545.111 117.95 547.407 125.289 547.833 133.717H519.282C518.477 128.272 516.347 123.892 512.89 120.578C509.481 117.216 505.007 115.535 499.467 115.535C494.779 115.535 490.684 116.814 487.18 119.371C483.723 121.88 481.025 125.55 479.083 130.379C477.142 135.209 476.171 141.056 476.171 147.922C476.171 154.882 477.118 160.801 479.012 165.678C480.954 170.554 483.676 174.271 487.18 176.828C490.684 179.385 494.779 180.663 499.467 180.663C502.923 180.663 506.025 179.953 508.771 178.533C511.564 177.112 513.861 175.053 515.66 172.354C517.507 169.607 518.714 166.317 519.282 162.481H547.833C547.36 170.815 545.087 178.154 541.015 184.499C536.99 190.796 531.427 195.72 524.325 199.271C517.222 202.822 508.818 204.598 499.112 204.598ZM625.23 93.3764V116.104H559.534V93.3764H625.23ZM574.449 67.24H604.705V168.945C604.705 171.738 605.131 173.916 605.983 175.479C606.835 176.994 608.019 178.059 609.534 178.675C611.097 179.29 612.896 179.598 614.932 179.598C616.352 179.598 617.773 179.48 619.193 179.243C620.614 178.959 621.703 178.746 622.46 178.604L627.219 201.118C625.704 201.591 623.573 202.136 620.827 202.751C618.081 203.414 614.743 203.817 610.813 203.959C603.521 204.243 597.129 203.272 591.637 201.047C586.191 198.821 581.954 195.365 578.923 190.678C575.893 185.99 574.402 180.071 574.449 172.922V67.24ZM693.057 204.598C682.025 204.598 672.484 202.254 664.435 197.567C656.433 192.832 650.254 186.25 645.898 177.822C641.542 169.347 639.364 159.522 639.364 148.348C639.364 137.079 641.542 127.231 645.898 118.803C650.254 110.327 656.433 103.746 664.435 99.0582C672.484 94.3233 682.025 91.9559 693.057 91.9559C704.089 91.9559 713.606 94.3233 721.608 99.0582C729.657 103.746 735.86 110.327 740.216 118.803C744.572 127.231 746.75 137.079 746.75 148.348C746.75 159.522 744.572 169.347 740.216 177.822C735.86 186.25 729.657 192.832 721.608 197.567C713.606 202.254 704.089 204.598 693.057 204.598ZM693.199 181.16C698.218 181.16 702.408 179.74 705.77 176.899C709.132 174.011 711.665 170.081 713.369 165.109C715.121 160.138 715.997 154.48 715.997 148.135C715.997 141.79 715.121 136.132 713.369 131.16C711.665 126.189 709.132 122.259 705.77 119.371C702.408 116.482 698.218 115.038 693.199 115.038C688.133 115.038 683.871 116.482 680.415 119.371C677.006 122.259 674.425 126.189 672.673 131.16C670.969 136.132 670.117 141.79 670.117 148.135C670.117 154.48 670.969 160.138 672.673 165.109C674.425 170.081 677.006 174.011 680.415 176.899C683.871 179.74 688.133 181.16 693.199 181.16ZM796.679 57.0127V202.467H766.423V57.0127H796.679ZM852.024 204.527C845.063 204.527 838.861 203.32 833.416 200.905C827.971 198.443 823.662 194.821 820.49 190.038C817.365 185.209 815.802 179.196 815.802 171.999C815.802 165.938 816.915 160.848 819.14 156.729C821.365 152.609 824.396 149.295 828.231 146.785C832.066 144.276 836.422 142.382 841.299 141.104C846.223 139.825 851.384 138.926 856.782 138.405C863.127 137.742 868.24 137.126 872.123 136.558C876.006 135.943 878.823 135.043 880.575 133.859C882.327 132.676 883.203 130.924 883.203 128.604V128.178C883.203 123.679 881.782 120.199 878.941 117.737C876.148 115.275 872.17 114.044 867.009 114.044C861.564 114.044 857.232 115.251 854.012 117.666C850.793 120.034 848.662 123.017 847.62 126.615L819.637 124.342C821.058 117.713 823.851 111.984 828.018 107.155C832.185 102.278 837.559 98.5374 844.14 95.9332C850.769 93.2817 858.439 91.9559 867.151 91.9559C873.212 91.9559 879.012 92.6661 884.552 94.0866C890.139 95.5071 895.087 97.7088 899.396 100.692C903.752 103.675 907.185 107.51 909.694 112.197C912.204 116.838 913.458 122.401 913.458 128.888V202.467H884.765V187.339H883.913C882.161 190.749 879.817 193.755 876.882 196.359C873.946 198.916 870.419 200.928 866.299 202.396C862.18 203.817 857.421 204.527 852.024 204.527ZM860.688 183.646C865.139 183.646 869.069 182.77 872.478 181.018C875.887 179.219 878.562 176.804 880.504 173.774C882.445 170.744 883.416 167.311 883.416 163.476V151.899C882.469 152.515 881.167 153.083 879.509 153.604C877.9 154.077 876.077 154.527 874.041 154.953C872.005 155.332 869.969 155.687 867.933 156.018C865.897 156.303 864.05 156.563 862.393 156.8C858.842 157.321 855.74 158.149 853.089 159.285C850.437 160.422 848.378 161.961 846.91 163.902C845.442 165.796 844.708 168.163 844.708 171.004C844.708 175.124 846.2 178.272 849.183 180.45C852.213 182.581 856.048 183.646 860.688 183.646ZM967.187 139.399V202.467H936.931V93.3764H965.767V112.624H967.045C969.46 106.279 973.508 101.26 979.19 97.5667C984.872 93.8262 991.761 91.9559 999.857 91.9559C1007.43 91.9559 1014.04 93.6131 1019.67 96.9275C1025.31 100.242 1029.69 104.977 1032.81 111.132C1035.94 117.24 1037.5 124.532 1037.5 133.007V202.467H1007.24V138.405C1007.29 131.729 1005.59 126.52 1002.13 122.78C998.674 118.992 993.915 117.098 987.855 117.098C983.783 117.098 980.184 117.974 977.059 119.726C973.981 121.478 971.567 124.035 969.815 127.396C968.11 130.711 967.234 134.712 967.187 139.399ZM1111.06 204.598C1099.84 204.598 1090.18 202.325 1082.08 197.78C1074.03 193.187 1067.83 186.7 1063.48 178.32C1059.12 169.892 1056.94 159.925 1056.94 148.419C1056.94 137.197 1059.12 127.349 1063.48 118.874C1067.83 110.398 1073.96 103.793 1081.87 99.0582C1089.83 94.3233 1099.15 91.9559 1109.85 91.9559C1117.05 91.9559 1123.75 93.116 1129.95 95.436C1136.2 97.7088 1141.65 101.142 1146.29 105.734C1150.98 110.327 1154.62 116.104 1157.23 123.064C1159.83 129.977 1161.13 138.073 1161.13 147.354V155.663H1069.02V136.913H1132.65C1132.65 132.557 1131.71 128.698 1129.81 125.337C1127.92 121.975 1125.29 119.347 1121.93 117.453C1118.61 115.512 1114.75 114.541 1110.35 114.541C1105.76 114.541 1101.69 115.606 1098.14 117.737C1094.63 119.82 1091.89 122.638 1089.9 126.189C1087.91 129.693 1086.89 133.599 1086.84 137.908V155.734C1086.84 161.132 1087.84 165.796 1089.83 169.726C1091.86 173.656 1094.73 176.686 1098.42 178.817C1102.11 180.947 1106.49 182.013 1111.56 182.013C1114.92 182.013 1118 181.539 1120.79 180.592C1123.58 179.645 1125.98 178.225 1127.96 176.331C1129.95 174.437 1131.47 172.117 1132.51 169.371L1160.49 171.217C1159.07 177.941 1156.16 183.812 1151.76 188.831C1147.4 193.803 1141.77 197.685 1134.85 200.479C1127.99 203.225 1120.06 204.598 1111.06 204.598ZM1252.8 202.467H1219.85L1270.06 57.0127H1309.69L1359.84 202.467H1326.88L1290.45 90.2514H1289.31L1252.8 202.467ZM1250.75 145.294H1328.59V169.3H1250.75V145.294ZM1408.1 57.0127V202.467H1377.34V57.0127H1408.1Z" fill="#111111"/>
<path d="M134.712 39.6465C121.071 101.03 60.1826 105.577 60.1826 105.577C60.1826 105.577 121.071 110.123 134.712 171.507C148.354 110.123 209.242 105.577 209.242 105.577C209.242 105.577 148.354 101.03 134.712 39.6465Z" fill="white"/>
<path d="M77.3803 131.375C75.5165 141.044 70.6221 149.868 63.4065 156.568C56.1909 163.269 47.029 167.497 37.2489 168.64C47.029 169.784 56.1909 174.012 63.4065 180.712C70.6221 187.413 75.5165 196.237 77.3803 205.905C79.2441 196.237 84.1385 187.413 91.3541 180.712C98.5697 174.012 107.732 169.784 117.512 168.64C107.732 167.497 98.5697 163.269 91.3541 156.568C84.1385 149.868 79.2441 141.044 77.3803 131.375Z" fill="white"/>
</svg>
